<?xml version="1.0" encoding="UTF-8" standalone="no"?>
<svg
   xmlns:dc="http://purl.org/dc/elements/1.1/"
   xmlns:cc="http://creativecommons.org/ns#"
   xmlns:rdf="http://www.w3.org/1999/02/22-rdf-syntax-ns#"
   xmlns:svg="http://www.w3.org/2000/svg"
   xmlns="http://www.w3.org/2000/svg"
   xmlns:xlink="http://www.w3.org/1999/xlink"
   xmlns:sodipodi="http://sodipodi.sourceforge.net/DTD/sodipodi-0.dtd"
   xmlns:inkscape="http://www.inkscape.org/namespaces/inkscape"
   version="1.1"
   id="Layer_1"
   x="0px"
   y="0px"
   width="466"
   height="379"
   viewBox="0 0 466 379"
   enable-background="new 0 0 595.276 280.63"
   xml:space="preserve">
<path
   style="fill:#00aeef"
   d="m 110.1722,146.02787 c 0,-32.89005 12.80606,-63.785074 36.05535,-87.023216 23.23814,-23.249288 54.14431,-36.044198 87.02322,-36.044198 32.8789,0 63.77393,12.79491 87.01207,36.044198 23.24929,23.238142 36.05535,54.133166 36.05535,87.023216 0,67.85315 -55.21428,123.05628 -123.06742,123.05628 -32.87891,0 -63.78508,-12.79491 -87.02322,-36.0442 -23.24929,-23.23814 -36.05535,-54.14431 -36.05535,-87.01208 m 123.07857,146.01579 c 38.99772,0 75.66606,-15.20232 103.25091,-42.76487 27.5737,-27.58485 42.76487,-64.25319 42.76487,-103.25092 0,-38.99772 -15.19117,-75.688353 -42.76487,-103.250907 C 308.91683,15.203263 272.24849,9.4852139e-4 233.25077,9.4852139e-4 152.73646,9.4852139e-4 87.223842,65.502417 87.223842,146.02787 c 0,38.99773 15.202318,75.66607 42.764868,103.25092 27.59599,27.55141 64.26433,42.76487 103.26206,42.76487"
   id="path3" /><path
   style="fill:#00aeef"
   d="m 166.15551,166.1676 c 0.17832,7.11076 4.38014,21.82268 23.56136,21.82268 13.31874,0 22.84805,-7.40054 22.84805,-16.16082 0,-8.88288 -5.33864,-16.67351 -20.63012,-19.63818 l -16.11624,-3.15415 c -20.56324,-4.68106 -33.1241,-15.61469 -33.1241,-35.34204 0,-19.97254 14.35526,-39.398958 47.4125,-39.398958 37.28133,0 45.13883,28.186698 45.13883,39.298648 h -25.50065 c 0,0 0.90277,-18.857999 -21.15396,-18.857999 -12.12618,0 -20.3069,5.360929 -20.3069,16.896409 0,10.1646 9.44015,13.84258 14.89024,15.09087 l 23.86229,5.11573 c 18.89144,4.52503 31.88696,14.57817 31.88696,36.61261 0,31.80895 -28.23128,40.82557 -49.00629,40.82557 -36.64604,0 -49.12888,-24.56444 -49.12888,-43.11037 h 25.36691"
   id="path5" /><polyline
   style="fill:#00aeef"
   points="36.411,37.342 32.023,37.342 32.023,35.324 38.771,35.324 38.771,46.978 36.411,46.978   36.411,37.342 "
   id="polyline7"
   transform="matrix(-11.145392,0,0,-11.145392,687.158,600.26947)" /><path
   style="fill:#00aeef"
   id="path17"
   d="m 21.965,42.301 c -0.042,-0.511 -0.062,-1.026 -0.062,-1.545 0,-5.034 1.959,-9.766 5.519,-13.325 3.56,-3.56 8.292,-5.521 13.326,-5.521 5.033,0 9.767,1.961 13.326,5.521 3.56,3.559 5.52,8.291 5.52,13.325 0,0.519 -0.022,1.034 -0.064,1.545 h 2.068 c 0.037,-0.512 0.056,-1.026 0.056,-1.545 0,-5.584 -2.175,-10.834 -6.124,-14.781 -3.948,-3.95 -9.198,-6.124 -14.782,-6.124 -5.585,0 -10.833,2.174 -14.783,6.124 -3.949,3.947 -6.122,9.197 -6.122,14.781 0,0.519 0.018,1.033 0.055,1.545 h 2.067"
   clip-path="url(#SVGID_2_)"
   transform="matrix(-11.145392,0,0,-11.145392,687.158,600.26947)" /><path
   style="fill:#00aeef"
   d="m 398.68182,128.80824 c 0.56842,5.68415 0.86934,11.42403 0.86934,17.21963 0,44.48126 -17.31994,86.30992 -48.78338,117.77336 -31.45229,31.4523 -73.28095,48.79453 -117.76221,48.79453 -44.49241,0 -86.32106,-17.34223 -117.77336,-48.79453 -31.463439,-31.46344 -48.794524,-73.2921 -48.794524,-117.77336 0,-5.7956 0.312071,-11.53548 0.880486,-17.21963 H 44.280647 c -0.523833,5.6953 -0.791323,11.43518 -0.791323,17.21963 0,50.62237 19.705053,98.2132 55.504052,134.0122 35.787854,35.78785 83.378674,55.4929 134.012194,55.4929 50.61122,0 98.20205,-19.70505 134.00105,-55.4929 35.799,-35.799 55.50405,-83.38983 55.50405,-134.0122 0,-5.78445 -0.27863,-11.52433 -0.79132,-17.21963 h -23.03753"
   id="path19" />
</svg>